<svg version="1.1" id="Layer_1" xmlns="http://www.w3.org/2000/svg" xmlns:xlink="http://www.w3.org/1999/xlink" x="0px" y="0px"
	 width="100%" viewBox="0 0 447 416" enable-background="new 0 0 447 416" xml:space="preserve">
<path fill="#FFFFFF" opacity="1.000000" stroke="none" 
	d="
M270.000000,417.000000 
	C180.000015,417.000000 90.500023,417.000000 1.000024,417.000000 
	C1.000016,278.333374 1.000016,139.666718 1.000008,1.000061 
	C149.999954,1.000041 298.999908,1.000041 447.999908,1.000020 
	C447.999939,139.666611 447.999939,278.333221 447.999969,416.999908 
	C388.833344,417.000000 329.666656,417.000000 270.000000,417.000000 
M122.988358,311.872467 
	C122.992386,343.024719 123.099686,374.177704 122.889633,405.328522 
	C122.857964,410.026367 124.275002,411.103882 128.774902,411.094177 
	C192.911652,410.955963 257.048920,410.941528 321.185516,411.113068 
	C326.201508,411.126465 327.129883,409.486511 327.103607,404.868286 
	C326.925262,373.550903 327.040070,342.231812 327.987885,310.977295 
	C360.890198,310.977295 393.792480,310.977295 426.686340,310.977295 
	C426.686340,242.289078 426.686340,174.393921 426.686340,105.878571 
	C392.932495,105.878571 359.489655,105.878571 326.013123,104.964333 
	C326.013123,72.085991 326.013123,39.207653 326.013123,6.313389 
	C257.615509,6.313389 190.093475,6.313389 121.948021,6.313389 
	C121.948021,39.706234 121.948021,72.789429 121.021805,105.968758 
	C88.114288,105.968758 55.206768,105.968758 22.308418,105.968758 
	C22.308418,174.704086 22.308418,242.608368 22.308418,310.923462 
	C56.062866,310.923462 89.511307,310.923462 122.988358,311.872467 
z"/>
<path fill="#FFCB71" opacity="1.000000" stroke="none" 
	d="
M326.046814,105.878571 
	C359.489655,105.878571 392.932495,105.878571 426.686340,105.878571 
	C426.686340,174.393921 426.686340,242.289078 426.686340,310.977295 
	C393.792480,310.977295 360.890198,310.977295 327.500397,310.629395 
	C325.297546,308.636200 323.553528,307.019592 321.871063,305.341309 
	C289.585785,273.136597 257.307739,240.924667 225.060760,208.385132 
	C226.250336,206.669785 227.308105,205.184433 228.578949,203.911880 
	C256.702332,175.750717 284.894623,147.658112 312.941284,119.420891 
	C316.997803,115.336845 320.352112,110.558708 324.114502,106.173119 
	C324.436096,105.798256 325.387817,105.963974 326.046814,105.878571 
M284.888214,200.582672 
	C284.909729,205.855774 284.052856,211.313980 285.117798,216.367172 
	C288.285309,231.396896 308.908539,237.550644 320.153381,226.957092 
	C322.712830,224.545898 324.219238,221.016922 326.635437,217.358780 
	C322.856323,216.930481 320.572327,216.671616 318.375275,216.422623 
	C313.015228,225.007446 308.420532,227.315567 301.424347,225.055756 
	C295.364563,223.098419 291.784180,217.230392 292.478149,209.889191 
	C303.525879,209.889191 314.619781,209.889191 325.645660,209.889191 
	C327.288879,197.335327 321.199677,187.419769 310.599030,184.857742 
	C298.917572,182.034485 289.194611,187.710602 284.888214,200.582672 
M348.617340,196.757233 
	C347.116669,194.561279 345.290253,192.517273 344.180939,190.138794 
	C341.615570,184.638504 337.395142,184.522766 331.943542,185.722229 
	C337.106689,193.227127 341.978943,200.309219 346.898834,207.460541 
	C341.482697,215.294998 336.237640,222.882050 330.973206,230.497070 
	C337.555756,232.421066 341.531250,230.107361 344.444092,224.679932 
	C346.413300,221.010712 349.204834,217.782822 351.916504,213.950500 
	C354.888214,218.382156 357.633453,221.786179 359.609711,225.589737 
	C362.370209,230.902695 366.329041,232.141052 372.224640,230.401718 
	C368.880707,225.549698 365.738403,220.911133 362.514862,216.329712 
	C356.271240,207.456177 356.265503,207.478851 362.664429,198.424042 
	C365.572876,194.308456 368.417297,190.147598 371.436676,185.797028 
	C365.285461,184.090652 361.410889,185.435608 358.687714,190.569702 
	C356.776550,194.172806 354.027008,197.331177 351.499207,200.903870 
	C350.509216,199.507477 349.745636,198.430466 348.617340,196.757233 
z"/>
<path fill="#A0FF7A" opacity="1.000000" stroke="none" 
	d="
M122.959747,310.923462 
	C89.511307,310.923462 56.062866,310.923462 22.308418,310.923462 
	C22.308418,242.608368 22.308418,174.704086 22.308418,105.968758 
	C55.206768,105.968758 88.114288,105.968758 121.772385,105.980011 
	C124.113052,107.923264 125.555641,110.002464 127.315140,111.765366 
	C157.992767,142.502029 188.717514,173.191666 219.392151,203.931320 
	C220.879517,205.421844 222.000946,207.277527 223.074707,209.241669 
	C190.777740,241.616531 158.689285,273.703400 126.650780,305.840027 
	C125.190247,307.305023 124.179817,309.218719 122.959747,310.923462 
M112.837563,210.500259 
	C112.837036,204.834412 112.740013,199.166290 112.874268,193.503632 
	C112.948013,190.392822 111.968842,189.006256 108.595360,188.986786 
	C105.051971,188.966370 105.025040,190.927994 105.035278,193.480820 
	C105.086052,206.145813 105.082283,218.811188 105.047058,231.476288 
	C105.029465,237.801483 101.775429,239.866226 96.031952,237.116577 
	C93.185806,235.753998 90.311691,234.299332 87.825424,232.396179 
	C86.491638,231.375198 85.200478,229.328568 85.173805,227.723434 
	C84.960594,214.895126 84.977531,202.060654 85.158195,189.231354 
	C85.179253,187.735764 86.238831,185.610245 87.471481,184.876816 
	C98.769875,178.154221 110.158157,171.575027 121.681000,165.246750 
	C123.176361,164.425491 125.956863,164.587891 127.508453,165.443573 
	C138.290802,171.389969 148.982971,177.513153 159.497421,183.918854 
	C161.228058,184.973221 162.919525,187.670990 162.968246,189.650131 
	C163.279816,202.307663 163.029129,214.977936 163.199036,227.640854 
	C163.239304,230.641937 161.978806,232.014191 159.542801,233.371994 
	C149.949020,238.719482 140.316208,244.032059 131.037643,249.895264 
	C126.390900,252.831573 122.404083,253.686386 118.052460,250.003342 
	C114.031021,246.599762 110.605164,248.182663 106.599220,251.285782 
	C111.070396,253.908356 115.229073,255.990707 118.980904,258.647583 
	C122.814766,261.362549 126.209038,261.124634 130.064041,258.841431 
	C141.806213,251.886932 153.611862,245.037842 165.458832,238.263199 
	C168.697983,236.410904 170.122742,234.009384 170.078339,230.190353 
	C169.915710,216.193863 169.801559,202.189362 170.129852,188.198685 
	C170.244522,183.312347 168.421890,180.540497 164.350159,178.271225 
	C153.157639,172.033371 142.074387,165.595810 131.029724,159.098160 
	C126.755409,156.583572 122.755562,156.258881 118.368118,158.843979 
	C106.898178,165.602127 95.376297,172.275726 83.776329,178.807587 
	C79.644554,181.134155 78.017410,184.452347 78.054466,189.022949 
	C78.136856,199.187759 77.973793,209.355072 78.103928,219.518890 
	C78.312294,235.793198 74.890892,234.201218 93.646446,243.842896 
	C93.942123,243.994904 94.255936,244.111923 94.562477,244.242493 
	C104.996376,248.686707 112.566574,243.869797 112.807472,232.497147 
	C112.955658,225.501083 112.836395,218.499359 112.837563,210.500259 
M131.924896,194.957428 
	C137.927536,194.870834 144.123871,194.062897 147.064087,201.521225 
	C147.419632,202.423096 150.526169,202.394836 152.354492,202.380737 
	C152.603668,202.378830 153.175049,199.893860 153.011978,198.634354 
	C152.420929,194.069656 149.611282,190.320145 145.434692,189.649536 
	C139.180496,188.645325 132.553619,188.330231 126.322456,189.279312 
	C120.242912,190.205307 116.953758,195.452042 117.166367,200.743134 
	C117.376396,205.970215 121.239296,209.777557 127.733093,210.970993 
	C133.113251,211.959747 138.565552,212.610123 143.881134,213.856995 
	C145.180145,214.161682 146.948135,216.230896 146.925842,217.460266 
	C146.897400,219.028442 145.357300,221.836716 144.317261,221.908295 
	C138.615738,222.300568 132.861542,222.142303 127.141838,221.850952 
	C126.151207,221.800476 124.563873,220.314590 124.402855,219.307678 
	C123.504524,213.690216 120.010300,214.692841 115.211639,215.839249 
	C116.565636,218.976471 117.440491,221.946075 119.016289,224.479752 
	C123.945198,232.404770 146.402985,231.696274 151.741425,225.534668 
	C152.175720,225.033386 152.606705,224.521286 152.972824,223.970108 
	C158.139816,216.191360 154.445511,208.204147 144.618896,206.184036 
	C139.260040,205.082382 133.804047,204.441193 128.466522,203.256119 
	C127.154976,202.964935 125.158646,201.308609 125.206161,200.367142 
	C125.281296,198.878372 126.624039,197.271423 127.804749,196.088074 
	C128.526535,195.364624 129.948593,195.339859 131.924896,194.957428 
z"/>
<path fill="#C4BCBC" opacity="1.000000" stroke="none" 
	d="
M223.292786,208.963150 
	C222.000946,207.277527 220.879517,205.421844 219.392151,203.931320 
	C188.717514,173.191666 157.992767,142.502029 127.315140,111.765366 
	C125.555641,110.002464 124.113052,107.923264 122.235489,105.931946 
	C121.948021,72.789429 121.948021,39.706234 121.948021,6.313389 
	C190.093475,6.313389 257.615509,6.313389 326.013123,6.313389 
	C326.013123,39.207653 326.013123,72.085991 326.029968,105.421448 
	C325.387817,105.963974 324.436096,105.798256 324.114502,106.173119 
	C320.352112,110.558708 316.997803,115.336845 312.941284,119.420891 
	C284.894623,147.658112 256.702332,175.750717 228.578949,203.911880 
	C227.308105,205.184433 226.250336,206.669785 224.773514,208.447327 
	C224.066727,208.880127 223.679764,208.921646 223.292786,208.963150 
M225.040100,52.341599 
	C224.975021,51.918858 224.909943,51.496117 224.796448,50.477753 
	C224.448151,49.953167 224.099869,49.428577 224.117294,49.454834 
	C220.062775,53.955589 216.004318,58.460705 211.359207,63.292606 
	C209.597702,66.209335 207.836197,69.126068 205.530136,72.484863 
	C203.740204,76.992561 201.950256,81.500252 199.818100,86.712112 
	C190.537460,117.689545 205.400925,142.141769 222.322281,153.260925 
	C223.200653,150.857864 224.080704,148.450165 224.922363,146.791245 
	C227.219391,153.195114 228.313522,153.638794 233.131546,148.930115 
	C248.706497,133.708679 253.963455,115.275703 249.712952,93.278069 
	C245.838303,77.171738 236.790359,64.220337 225.035004,52.948967 
	C225.035004,52.948967 225.100647,52.982758 225.040100,52.341599 
z"/>
<path fill="#D3F5FE" opacity="1.000000" stroke="none" 
	d="
M223.074707,209.241669 
	C223.679764,208.921646 224.066727,208.880127 224.740936,208.776428 
	C257.307739,240.924667 289.585785,273.136597 321.871063,305.341309 
	C323.553528,307.019592 325.297546,308.636200 327.036530,310.597412 
	C327.040070,342.231812 326.925262,373.550903 327.103607,404.868286 
	C327.129883,409.486511 326.201508,411.126465 321.185516,411.113068 
	C257.048920,410.941528 192.911652,410.955963 128.774902,411.094177 
	C124.275002,411.103882 122.857964,410.026367 122.889633,405.328522 
	C123.099686,374.177704 122.992386,343.024719 122.974045,311.397949 
	C124.179817,309.218719 125.190247,307.305023 126.650780,305.840027 
	C158.689285,273.703400 190.777740,241.616531 223.074707,209.241669 
M258.027435,271.617523 
	C255.800110,259.683624 247.188736,258.554871 237.608795,263.604553 
	C233.246735,265.903839 229.413284,269.205994 225.628174,271.851898 
	C220.356033,268.636719 215.423065,264.810150 209.871475,262.421295 
	C199.800644,258.087769 192.634354,262.807404 192.144333,273.830505 
	C191.897095,279.392242 192.692322,285.000336 193.035553,290.921631 
	C190.403091,291.942474 187.201828,292.898621 184.278824,294.397461 
	C181.344574,295.902100 178.440933,297.662262 175.956512,299.810699 
	C169.109650,305.731781 168.811584,312.284515 175.711166,317.981506 
	C179.849091,321.398163 184.897720,323.859497 189.829193,326.109955 
	C192.615463,327.381409 193.509979,328.540100 193.028976,331.589172 
	C192.360214,335.828491 191.887894,340.195221 192.127869,344.462616 
	C192.753159,355.581757 200.131927,360.343323 210.231110,355.845734 
	C215.740601,353.392181 220.675797,349.649078 225.339859,346.810211 
	C230.609848,349.983612 235.613144,353.640106 241.132858,356.169861 
	C249.490829,360.000397 256.344025,356.587158 257.789795,347.493805 
	C258.808960,341.083923 257.986877,334.381287 257.986877,327.979187 
	C263.140656,325.030853 269.073181,322.321899 274.211517,318.535187 
	C281.709930,313.009216 281.560669,304.919647 273.984955,299.423279 
	C269.871033,296.438538 265.132690,294.177124 260.416046,292.214050 
	C257.751343,291.105011 256.994110,290.311249 257.458221,287.256836 
	C258.196411,282.398468 257.946716,277.389984 258.027435,271.617523 
z"/>
<path fill="#494845" opacity="1.000000" stroke="none" 
	d="
M284.967773,200.178558 
	C289.194611,187.710602 298.917572,182.034485 310.599030,184.857742 
	C321.199677,187.419769 327.288879,197.335327 325.645660,209.889191 
	C314.619781,209.889191 303.525879,209.889191 292.478149,209.889191 
	C291.784180,217.230392 295.364563,223.098419 301.424347,225.055756 
	C308.420532,227.315567 313.015228,225.007446 318.375275,216.422623 
	C320.572327,216.671616 322.856323,216.930481 326.635437,217.358780 
	C324.219238,221.016922 322.712830,224.545898 320.153381,226.957092 
	C308.908539,237.550644 288.285309,231.396896 285.117798,216.367172 
	C284.052856,211.313980 284.909729,205.855774 284.967773,200.178558 
M311.353119,203.888260 
	C313.456360,203.888260 315.559601,203.888260 317.676941,203.888260 
	C317.356598,195.418900 312.203491,190.126801 304.978699,190.271927 
	C297.850922,190.415100 292.325836,196.254364 292.471344,203.888168 
	C298.433624,203.888168 304.410461,203.888168 311.353119,203.888260 
z"/>
<path fill="#4B4945" opacity="1.000000" stroke="none" 
	d="
M348.799713,197.055328 
	C349.745636,198.430466 350.509216,199.507477 351.499207,200.903870 
	C354.027008,197.331177 356.776550,194.172806 358.687714,190.569702 
	C361.410889,185.435608 365.285461,184.090652 371.436676,185.797028 
	C368.417297,190.147598 365.572876,194.308456 362.664429,198.424042 
	C356.265503,207.478851 356.271240,207.456177 362.514862,216.329712 
	C365.738403,220.911133 368.880707,225.549698 372.224640,230.401718 
	C366.329041,232.141052 362.370209,230.902695 359.609711,225.589737 
	C357.633453,221.786179 354.888214,218.382156 351.916504,213.950500 
	C349.204834,217.782822 346.413300,221.010712 344.444092,224.679932 
	C341.531250,230.107361 337.555756,232.421066 330.973206,230.497070 
	C336.237640,222.882050 341.482697,215.294998 346.898834,207.460541 
	C341.978943,200.309219 337.106689,193.227127 331.943542,185.722229 
	C337.395142,184.522766 341.615570,184.638504 344.180939,190.138794 
	C345.290253,192.517273 347.116669,194.561279 348.799713,197.055328 
z"/>
<path fill="#57A346" opacity="1.000000" stroke="none" 
	d="
M112.837387,211.000214 
	C112.836395,218.499359 112.955658,225.501083 112.807472,232.497147 
	C112.566574,243.869797 104.996376,248.686707 94.562477,244.242493 
	C94.255936,244.111923 93.942123,243.994904 93.646446,243.842896 
	C74.890892,234.201218 78.312294,235.793198 78.103928,219.518890 
	C77.973793,209.355072 78.136856,199.187759 78.054466,189.022949 
	C78.017410,184.452347 79.644554,181.134155 83.776329,178.807587 
	C95.376297,172.275726 106.898178,165.602127 118.368118,158.843979 
	C122.755562,156.258881 126.755409,156.583572 131.029724,159.098160 
	C142.074387,165.595810 153.157639,172.033371 164.350159,178.271225 
	C168.421890,180.540497 170.244522,183.312347 170.129852,188.198685 
	C169.801559,202.189362 169.915710,216.193863 170.078339,230.190353 
	C170.122742,234.009384 168.697983,236.410904 165.458832,238.263199 
	C153.611862,245.037842 141.806213,251.886932 130.064041,258.841431 
	C126.209038,261.124634 122.814766,261.362549 118.980904,258.647583 
	C115.229073,255.990707 111.070396,253.908356 106.599220,251.285782 
	C110.605164,248.182663 114.031021,246.599762 118.052460,250.003342 
	C122.404083,253.686386 126.390900,252.831573 131.037643,249.895264 
	C140.316208,244.032059 149.949020,238.719482 159.542801,233.371994 
	C161.978806,232.014191 163.239304,230.641937 163.199036,227.640854 
	C163.029129,214.977936 163.279816,202.307663 162.968246,189.650131 
	C162.919525,187.670990 161.228058,184.973221 159.497421,183.918854 
	C148.982971,177.513153 138.290802,171.389969 127.508453,165.443573 
	C125.956863,164.587891 123.176361,164.425491 121.681000,165.246750 
	C110.158157,171.575027 98.769875,178.154221 87.471481,184.876816 
	C86.238831,185.610245 85.179253,187.735764 85.158195,189.231354 
	C84.977531,202.060654 84.960594,214.895126 85.173805,227.723434 
	C85.200478,229.328568 86.491638,231.375198 87.825424,232.396179 
	C90.311691,234.299332 93.185806,235.753998 96.031952,237.116577 
	C101.775429,239.866226 105.029465,237.801483 105.047058,231.476288 
	C105.082283,218.811188 105.086052,206.145813 105.035278,193.480820 
	C105.025040,190.927994 105.051971,188.966370 108.595360,188.986786 
	C111.968842,189.006256 112.948013,190.392822 112.874268,193.503632 
	C112.740013,199.166290 112.837036,204.834412 112.837387,211.000214 
z"/>
<path fill="#56A245" opacity="1.000000" stroke="none" 
	d="
M131.490509,194.979370 
	C129.948593,195.339859 128.526535,195.364624 127.804749,196.088074 
	C126.624039,197.271423 125.281296,198.878372 125.206161,200.367142 
	C125.158646,201.308609 127.154976,202.964935 128.466522,203.256119 
	C133.804047,204.441193 139.260040,205.082382 144.618896,206.184036 
	C154.445511,208.204147 158.139816,216.191360 152.972824,223.970108 
	C152.606705,224.521286 152.175720,225.033386 151.741425,225.534668 
	C146.402985,231.696274 123.945198,232.404770 119.016289,224.479752 
	C117.440491,221.946075 116.565636,218.976471 115.211639,215.839249 
	C120.010300,214.692841 123.504524,213.690216 124.402855,219.307678 
	C124.563873,220.314590 126.151207,221.800476 127.141838,221.850952 
	C132.861542,222.142303 138.615738,222.300568 144.317261,221.908295 
	C145.357300,221.836716 146.897400,219.028442 146.925842,217.460266 
	C146.948135,216.230896 145.180145,214.161682 143.881134,213.856995 
	C138.565552,212.610123 133.113251,211.959747 127.733093,210.970993 
	C121.239296,209.777557 117.376396,205.970215 117.166367,200.743134 
	C116.953758,195.452042 120.242912,190.205307 126.322456,189.279312 
	C132.553619,188.330231 139.180496,188.645325 145.434692,189.649536 
	C149.611282,190.320145 152.420929,194.069656 153.011978,198.634354 
	C153.175049,199.893860 152.603668,202.378830 152.354492,202.380737 
	C150.526169,202.394836 147.419632,202.423096 147.064087,201.521225 
	C144.123871,194.062897 137.927536,194.870834 131.490509,194.979370 
z"/>
<path fill="#449845" opacity="1.000000" stroke="none" 
	d="
M249.642426,94.017075 
	C253.963455,115.275703 248.706497,133.708679 233.131546,148.930115 
	C228.313522,153.638794 227.219391,153.195114 224.959595,145.986237 
	C224.991699,143.458176 224.986557,141.735138 224.986450,139.542358 
	C224.990540,132.713074 224.989578,126.353523 224.991821,119.526047 
	C225.001572,112.040749 225.008118,105.023392 225.414719,97.996353 
	C233.757339,96.663483 241.699875,95.340279 249.642426,94.017075 
z"/>
<path fill="#48A54A" opacity="1.000000" stroke="none" 
	d="
M224.981400,140.012100 
	C224.986557,141.735138 224.991699,143.458176 224.978806,145.611847 
	C224.080704,148.450165 223.200653,150.857864 222.322281,153.260925 
	C205.400925,142.141769 190.537460,117.689545 200.353363,86.368057 
	C201.958145,87.307831 203.468292,88.427307 204.019333,89.904549 
	C206.164764,95.656158 208.020477,101.516418 209.957214,107.345161 
	C213.359543,117.584663 216.674240,127.854126 220.189880,138.054428 
	C220.900894,140.117355 221.628830,143.709991 224.981400,140.012100 
z"/>
<path fill="#479F47" opacity="1.000000" stroke="none" 
	d="
M249.677689,93.647568 
	C241.699875,95.340279 233.757339,96.663483 225.409073,97.551056 
	C224.996262,94.740265 224.989182,92.365112 224.986465,89.522369 
	C225.021500,77.000145 225.052185,64.945503 225.082855,52.890865 
	C236.790359,64.220337 245.838303,77.171738 249.677689,93.647568 
z"/>
<path fill="#4EA84B" opacity="1.000000" stroke="none" 
	d="
M224.986450,139.542358 
	C221.628830,143.709991 220.900894,140.117355 220.189880,138.054428 
	C216.674240,127.854126 213.359543,117.584663 209.957214,107.345161 
	C208.020477,101.516418 206.164764,95.656158 204.019333,89.904549 
	C203.468292,88.427307 201.958145,87.307831 200.524475,86.015976 
	C201.950256,81.500252 203.740204,76.992561 206.112152,72.429565 
	C207.339981,73.689583 208.135880,74.953331 208.608292,76.328224 
	C213.132568,89.495499 217.558609,102.696762 222.146317,115.841675 
	C222.679810,117.370247 224.021591,118.616714 224.988617,119.993973 
	C224.989578,126.353523 224.990540,132.713074 224.986450,139.542358 
z"/>
<path fill="#56AD4E" opacity="1.000000" stroke="none" 
	d="
M224.991821,119.526039 
	C224.021591,118.616714 222.679810,117.370247 222.146317,115.841675 
	C217.558609,102.696762 213.132568,89.495499 208.608292,76.328224 
	C208.135880,74.953331 207.339981,73.689583 206.384430,72.208527 
	C207.836197,69.126068 209.597702,66.209335 211.970581,63.294228 
	C215.016113,69.548302 217.275482,75.877197 219.962051,82.019234 
	C221.206299,84.863831 223.282867,87.344368 224.982101,89.989952 
	C224.989182,92.365112 224.996262,94.740265 225.009003,97.560730 
	C225.008118,105.023392 225.001572,112.040749 224.991821,119.526039 
z"/>
<path fill="#5FB151" opacity="1.000000" stroke="none" 
	d="
M224.986465,89.522369 
	C223.282867,87.344368 221.206299,84.863831 219.962051,82.019234 
	C217.275482,75.877197 215.016113,69.548302 212.263916,63.130836 
	C216.004318,58.460705 220.062775,53.955589 224.117294,49.454834 
	C224.099869,49.428577 224.448151,49.953167 224.619202,50.934483 
	C224.661530,51.921726 224.881088,52.452240 225.100647,52.982758 
	C225.100647,52.982758 225.035004,52.948967 225.058929,52.919914 
	C225.052185,64.945503 225.021500,77.000145 224.986465,89.522369 
z"/>
<path fill="#479F47" opacity="1.000000" stroke="none" 
	d="
M225.070374,52.662178 
	C224.881088,52.452240 224.661530,51.921726 224.643402,51.232292 
	C224.909943,51.496117 224.975021,51.918858 225.070374,52.662178 
z"/>
<path fill="#0AD9FF" opacity="1.000000" stroke="none" 
	d="
M258.071167,272.031250 
	C257.946716,277.389984 258.196411,282.398468 257.458221,287.256836 
	C256.994110,290.311249 257.751343,291.105011 260.416046,292.214050 
	C265.132690,294.177124 269.871033,296.438538 273.984955,299.423279 
	C281.560669,304.919647 281.709930,313.009216 274.211517,318.535187 
	C269.073181,322.321899 263.140656,325.030853 257.986877,327.979187 
	C257.986877,334.381287 258.808960,341.083923 257.789795,347.493805 
	C256.344025,356.587158 249.490829,360.000397 241.132858,356.169861 
	C235.613144,353.640106 230.609848,349.983612 225.339859,346.810211 
	C220.675797,349.649078 215.740601,353.392181 210.231110,355.845734 
	C200.131927,360.343323 192.753159,355.581757 192.127869,344.462616 
	C191.887894,340.195221 192.360214,335.828491 193.028976,331.589172 
	C193.509979,328.540100 192.615463,327.381409 189.829193,326.109955 
	C184.897720,323.859497 179.849091,321.398163 175.711166,317.981506 
	C168.811584,312.284515 169.109650,305.731781 175.956512,299.810699 
	C178.440933,297.662262 181.344574,295.902100 184.278824,294.397461 
	C187.201828,292.898621 190.403091,291.942474 193.035553,290.921631 
	C192.692322,285.000336 191.897095,279.392242 192.144333,273.830505 
	C192.634354,262.807404 199.800644,258.087769 209.871475,262.421295 
	C215.423065,264.810150 220.356033,268.636719 225.628174,271.851898 
	C229.413284,269.205994 233.246735,265.903839 237.608795,263.604553 
	C247.188736,258.554871 255.800110,259.683624 258.071167,272.031250 
M209.979782,317.491608 
	C212.715012,326.328186 219.471481,327.431213 227.296524,326.519867 
	C228.616592,326.366119 229.978088,326.137848 231.275284,326.301636 
	C234.647842,326.727448 236.014938,324.574219 237.935547,322.291168 
	C245.489227,313.312042 245.404144,304.866486 237.842972,295.873322 
	C235.730927,293.361298 234.126923,291.498779 230.714111,291.881622 
	C229.236908,292.047333 227.693802,292.053619 226.228409,291.825470 
	C218.177429,290.571930 213.277374,293.554749 209.447708,301.127258 
	C206.462448,307.030121 205.356094,311.624237 209.979782,317.491608 
M253.433578,272.451385 
	C251.320602,265.128052 248.694992,263.658264 241.862991,266.997894 
	C237.215103,269.269867 233.018539,272.465210 228.633942,275.238953 
	C233.589935,283.035797 238.206650,289.293854 247.831161,289.152313 
	C251.297684,289.101349 253.184143,288.971069 253.234375,285.094757 
	C253.285538,281.146454 253.550064,277.200928 253.433578,272.451385 
M240.047714,350.636444 
	C248.748123,354.504974 252.976318,352.921814 253.784836,344.787781 
	C254.297836,339.626678 253.491379,334.334442 253.286484,329.340851 
	C241.542221,328.294006 233.937225,332.834198 229.081131,343.077179 
	C232.358826,345.360321 235.876831,347.810913 240.047714,350.636444 
M197.096466,316.596375 
	C202.861984,308.890930 196.867966,302.703064 194.594315,294.487335 
	C188.741898,297.895172 183.319565,300.393707 178.699860,303.938324 
	C174.546875,307.124817 174.465363,310.817566 178.521088,314.020569 
	C183.285172,317.782990 188.879227,320.494446 194.476242,323.881256 
	C195.620651,320.733032 196.241089,319.026154 197.096466,316.596375 
M198.739609,329.108673 
	C198.216187,335.092194 197.152222,341.095520 197.370026,347.051941 
	C197.502823,350.683197 200.320297,353.451355 204.679840,352.621063 
	C211.565170,351.309692 216.895996,347.404327 221.720535,342.414215 
	C216.967758,335.705170 212.896332,328.922638 203.469193,329.730347 
	C202.204544,329.838715 200.881134,329.261414 198.739609,329.108673 
M197.946228,287.594727 
	C198.786850,288.142517 199.620102,289.153717 200.469254,289.167236 
	C210.304184,289.324036 217.260086,284.889832 221.683746,274.793335 
	C216.802521,271.973907 212.067886,268.621399 206.852158,266.396973 
	C201.428162,264.083679 197.500778,266.608673 197.087143,272.425262 
	C196.750778,277.155426 197.451355,281.959381 197.946228,287.594727 
M258.124512,321.948395 
	C262.849487,319.284393 267.997437,317.149353 272.179077,313.805817 
	C276.261993,310.541199 275.927032,307.826172 272.171448,304.149109 
	C267.577118,299.650757 261.932373,297.129364 255.475677,295.886261 
	C254.730698,298.050598 254.471069,300.183594 253.382111,301.734131 
	C248.200851,309.111511 253.532547,315.216766 255.589157,321.705048 
	C255.684937,322.007202 256.734650,322.006958 258.124512,321.948395 
M230.564102,332.746887 
	C227.146515,332.026764 223.728928,331.306641 220.311340,330.586487 
	C220.142273,331.148376 219.973206,331.710297 219.804138,332.272186 
	C221.543060,334.387817 223.281998,336.503479 225.428833,339.115387 
	C227.245316,336.861603 228.660980,335.105103 230.564102,332.746887 
M249.597015,319.145050 
	C248.962631,317.889130 248.328232,316.633240 247.416336,314.827942 
	C245.347244,318.589508 243.575897,321.809784 241.300156,325.947052 
	C245.136063,325.167480 247.945145,324.596588 251.035751,323.968475 
	C250.558716,322.280792 250.212692,321.056610 249.597015,319.145050 
M205.020950,325.217621 
	C206.223969,325.376373 207.426987,325.535126 209.453522,325.802551 
	C207.161362,321.999420 205.327499,318.956665 202.941986,314.998596 
	C201.645081,318.420929 200.694046,320.930511 199.551453,323.945648 
	C201.465118,324.416168 202.854965,324.757904 205.020950,325.217621 
M248.998886,300.205780 
	C249.624374,298.368378 250.249847,296.530975 251.011337,294.294067 
	C247.857376,293.782593 245.111908,293.337372 241.345322,292.726562 
	C243.721573,296.795105 245.473511,299.794708 247.383316,303.064636 
	C248.043167,301.993866 248.387039,301.435852 248.998886,300.205780 
M207.818283,295.275940 
	C207.629745,294.499634 207.349701,293.035980 207.265991,293.047089 
	C204.860092,293.367371 202.473892,293.835602 199.591705,294.371490 
	C200.774277,297.527039 201.729691,300.076447 202.949158,303.330444 
	C204.746078,300.328979 206.077713,298.104736 207.818283,295.275940 
M222.261856,282.925446 
	C221.482513,284.062592 220.703171,285.199738 219.656952,286.726288 
	C223.775894,286.726288 227.122879,286.726288 231.025986,286.726288 
	C229.992050,285.185822 229.304169,284.101837 228.555771,283.061371 
	C227.696915,281.867371 226.784348,280.712006 225.494171,279.011353 
	C224.195435,280.612793 223.477905,281.497559 222.261856,282.925446 
z"/>
<path fill="#F8C66F" opacity="1.000000" stroke="none" 
	d="
M310.870178,203.888214 
	C304.410461,203.888168 298.433624,203.888168 292.471344,203.888168 
	C292.325836,196.254364 297.850922,190.415100 304.978699,190.271927 
	C312.203491,190.126801 317.356598,195.418900 317.676941,203.888260 
	C315.559601,203.888260 313.456360,203.888260 310.870178,203.888214 
z"/>
<path fill="#CDF4FE" opacity="1.000000" stroke="none" 
	d="
M209.784866,317.176575 
	C205.356094,311.624237 206.462448,307.030121 209.447708,301.127258 
	C213.277374,293.554749 218.177429,290.571930 226.228409,291.825470 
	C227.693802,292.053619 229.236908,292.047333 230.714111,291.881622 
	C234.126923,291.498779 235.730927,293.361298 237.842972,295.873322 
	C245.404144,304.866486 245.489227,313.312042 237.935547,322.291168 
	C236.014938,324.574219 234.647842,326.727448 231.275284,326.301636 
	C229.978088,326.137848 228.616592,326.366119 227.296524,326.519867 
	C219.471481,327.431213 212.715012,326.328186 209.784866,317.176575 
M234.975632,307.826416 
	C232.573334,300.972321 227.852814,297.910858 222.486755,299.726807 
	C217.574173,301.389252 214.929565,305.938629 215.893356,311.068909 
	C216.724625,315.493744 220.962708,318.888672 225.537964,318.794830 
	C230.653870,318.689850 234.237106,314.835968 234.975632,307.826416 
z"/>
<path fill="#CDF4FE" opacity="1.000000" stroke="none" 
	d="
M253.577377,272.852783 
	C253.550064,277.200928 253.285538,281.146454 253.234375,285.094757 
	C253.184143,288.971069 251.297684,289.101349 247.831161,289.152313 
	C238.206650,289.293854 233.589935,283.035797 228.633942,275.238953 
	C233.018539,272.465210 237.215103,269.269867 241.862991,266.997894 
	C248.694992,263.658264 251.320602,265.128052 253.577377,272.852783 
z"/>
<path fill="#CFF4FE" opacity="1.000000" stroke="none" 
	d="
M239.721283,350.448975 
	C235.876831,347.810913 232.358826,345.360321 229.081131,343.077179 
	C233.937225,332.834198 241.542221,328.294006 253.286484,329.340851 
	C253.491379,334.334442 254.297836,339.626678 253.784836,344.787781 
	C252.976318,352.921814 248.748123,354.504974 239.721283,350.448975 
z"/>
<path fill="#D0F5FE" opacity="1.000000" stroke="none" 
	d="
M196.979004,316.957825 
	C196.241089,319.026154 195.620651,320.733032 194.476242,323.881256 
	C188.879227,320.494446 183.285172,317.782990 178.521088,314.020569 
	C174.465363,310.817566 174.546875,307.124817 178.699860,303.938324 
	C183.319565,300.393707 188.741898,297.895172 194.594315,294.487335 
	C196.867966,302.703064 202.861984,308.890930 196.979004,316.957825 
z"/>
<path fill="#CFF4FE" opacity="1.000000" stroke="none" 
	d="
M199.162277,329.055145 
	C200.881134,329.261414 202.204544,329.838715 203.469193,329.730347 
	C212.896332,328.922638 216.967758,335.705170 221.720535,342.414215 
	C216.895996,347.404327 211.565170,351.309692 204.679840,352.621063 
	C200.320297,353.451355 197.502823,350.683197 197.370026,347.051941 
	C197.152222,341.095520 198.216187,335.092194 199.162277,329.055145 
z"/>
<path fill="#CFF4FE" opacity="1.000000" stroke="none" 
	d="
M197.819153,287.162659 
	C197.451355,281.959381 196.750778,277.155426 197.087143,272.425262 
	C197.500778,266.608673 201.428162,264.083679 206.852158,266.396973 
	C212.067886,268.621399 216.802521,271.973907 221.683746,274.793335 
	C217.260086,284.889832 210.304184,289.324036 200.469254,289.167236 
	C199.620102,289.153717 198.786850,288.142517 197.819153,287.162659 
z"/>
<path fill="#CEF4FE" opacity="1.000000" stroke="none" 
	d="
M257.732300,322.047974 
	C256.734650,322.006958 255.684937,322.007202 255.589157,321.705048 
	C253.532547,315.216766 248.200851,309.111511 253.382111,301.734131 
	C254.471069,300.183594 254.730698,298.050598 255.475677,295.886261 
	C261.932373,297.129364 267.577118,299.650757 272.171448,304.149109 
	C275.927032,307.826172 276.261993,310.541199 272.179077,313.805817 
	C267.997437,317.149353 262.849487,319.284393 257.732300,322.047974 
z"/>
<path fill="#BEF3FE" opacity="1.000000" stroke="none" 
	d="
M230.320374,333.047760 
	C228.660980,335.105103 227.245316,336.861603 225.428833,339.115387 
	C223.281998,336.503479 221.543060,334.387817 219.804138,332.272186 
	C219.973206,331.710297 220.142273,331.148376 220.311340,330.586487 
	C223.728928,331.306641 227.146515,332.026764 230.320374,333.047760 
z"/>
<path fill="#C1F3FE" opacity="1.000000" stroke="none" 
	d="
M249.731842,319.488708 
	C250.212692,321.056610 250.558716,322.280792 251.035751,323.968475 
	C247.945145,324.596588 245.136063,325.167480 241.300156,325.947052 
	C243.575897,321.809784 245.347244,318.589508 247.416336,314.827942 
	C248.328232,316.633240 248.962631,317.889130 249.731842,319.488708 
z"/>
<path fill="#C1F3FE" opacity="1.000000" stroke="none" 
	d="
M204.632874,325.158630 
	C202.854965,324.757904 201.465118,324.416168 199.551453,323.945648 
	C200.694046,320.930511 201.645081,318.420929 202.941986,314.998596 
	C205.327499,318.956665 207.161362,321.999420 209.453522,325.802551 
	C207.426987,325.535126 206.223969,325.376373 204.632874,325.158630 
z"/>
<path fill="#C3F3FE" opacity="1.000000" stroke="none" 
	d="
M248.864899,300.541809 
	C248.387039,301.435852 248.043167,301.993866 247.383316,303.064636 
	C245.473511,299.794708 243.721573,296.795105 241.345322,292.726562 
	C245.111908,293.337372 247.857376,293.782593 251.011337,294.294067 
	C250.249847,296.530975 249.624374,298.368378 248.864899,300.541809 
z"/>
<path fill="#C6F3FE" opacity="1.000000" stroke="none" 
	d="
M207.613815,295.578186 
	C206.077713,298.104736 204.746078,300.328979 202.949158,303.330444 
	C201.729691,300.076447 200.774277,297.527039 199.591705,294.371490 
	C202.473892,293.835602 204.860092,293.367371 207.265991,293.047089 
	C207.349701,293.035980 207.629745,294.499634 207.613815,295.578186 
z"/>
<path fill="#CAF4FE" opacity="1.000000" stroke="none" 
	d="
M222.511108,282.653900 
	C223.477905,281.497559 224.195435,280.612793 225.494171,279.011353 
	C226.784348,280.712006 227.696915,281.867371 228.555771,283.061371 
	C229.304169,284.101837 229.992050,285.185822 231.025986,286.726288 
	C227.122879,286.726288 223.775894,286.726288 219.656952,286.726288 
	C220.703171,285.199738 221.482513,284.062592 222.511108,282.653900 
z"/>
<path fill="#06D9FF" opacity="1.000000" stroke="none" 
	d="
M234.985382,308.224854 
	C234.237106,314.835968 230.653870,318.689850 225.537964,318.794830 
	C220.962708,318.888672 216.724625,315.493744 215.893356,311.068909 
	C214.929565,305.938629 217.574173,301.389252 222.486755,299.726807 
	C227.852814,297.910858 232.573334,300.972321 234.985382,308.224854 
z"/>
</svg>