<svg version="1.1" id="Layer_1" xmlns="http://www.w3.org/2000/svg" xmlns:xlink="http://www.w3.org/1999/xlink" x="0px" y="0px"
	 width="100%" viewBox="0 0 512 512" enable-background="new 0 0 512 512" xml:space="preserve">
<path fill="#FFFFFF" opacity="1.000000" stroke="none" 
	d="
M1.000000,273.000000 
	C1.000000,262.645782 1.000000,252.291550 1.468657,241.468658 
	C76.193672,241.000000 150.450027,241.000000 224.768280,241.000000 
	C224.768280,178.097443 224.768280,115.693932 224.768280,52.756344 
	C220.455429,53.189861 216.421005,53.556210 212.396301,54.008957 
	C206.079849,54.719517 199.763855,55.440369 193.458740,56.243748 
	C183.940369,57.456558 174.439392,58.808250 164.916336,59.981522 
	C155.852936,61.098167 146.758865,61.968578 137.699966,63.118309 
	C128.351639,64.304771 119.042824,65.804810 109.692047,66.969551 
	C100.463753,68.119034 91.193802,68.931961 81.961868,70.054893 
	C71.953896,71.272224 61.973835,72.717224 51.971725,73.985046 
	C45.985073,74.743881 39.976265,75.326103 33.983131,76.035980 
	C22.986525,77.338493 11.994144,78.676689 1.000000,80.000000 
	C1.000000,53.685863 1.000000,27.371729 1.000000,1.034391 
	C171.666672,1.034391 342.333344,1.034391 513.000000,1.034391 
	C513.000000,6.065056 513.000000,11.061330 512.549316,16.528801 
	C502.019623,18.011534 491.926361,18.900160 481.865662,20.069258 
	C471.851288,21.232975 461.874664,22.717779 451.871765,23.985312 
	C445.884460,24.744001 439.869141,25.282972 433.883057,26.050392 
	C424.045898,27.311522 414.230103,28.740040 404.390594,29.981670 
	C395.494751,31.104227 386.568817,31.989597 377.675293,33.129082 
	C368.326752,34.326866 359.014099,35.807522 349.661591,36.970123 
	C340.432159,38.117420 331.155609,38.889175 321.930267,40.065163 
	C310.001343,41.585785 298.113434,43.426857 286.187622,44.973789 
	C276.531433,46.226326 266.845306,47.248047 257.296997,48.357677 
	C257.296997,112.670647 257.296997,176.736176 257.296997,241.000000 
	C342.729218,241.000000 427.864624,241.000000 513.000000,241.000000 
	C513.000000,251.354233 513.000000,261.708466 512.531372,272.531342 
	C427.139404,273.000000 342.216125,273.000000 257.233887,273.000000 
	C257.233887,337.571594 257.233887,401.643219 257.233887,465.791046 
	C262.341644,466.217590 267.244690,466.473938 272.107056,467.065125 
	C282.115326,468.282043 292.096832,469.717621 302.099243,470.985199 
	C308.086212,471.743988 314.100311,472.288818 320.087250,473.047668 
	C330.089630,474.315460 340.074005,475.725800 350.077362,476.985565 
	C358.809814,478.085297 367.568085,478.981995 376.296478,480.111267 
	C385.642365,481.320435 394.953247,482.804352 404.304169,483.969482 
	C413.532745,485.119354 422.803070,485.931854 432.035339,487.054779 
	C442.043640,488.272125 452.024048,489.717194 462.026520,490.985016 
	C468.013367,491.743835 474.022400,492.326050 480.015747,493.035950 
	C491.012726,494.338440 502.005493,495.676666 513.000000,497.000000 
	C513.000000,502.329498 513.000000,507.658966 513.000000,512.940613 
	C342.333313,512.940613 171.666656,512.940613 1.000000,512.940613 
	C1.000000,486.899933 1.000000,460.918610 1.450679,434.468628 
	C11.979759,435.011505 22.062719,435.980164 32.134708,437.051941 
	C37.476192,437.620361 42.802658,438.337280 48.128811,439.040863 
	C57.960941,440.339722 67.780090,441.739471 77.619232,442.981812 
	C86.514526,444.104980 95.439552,444.993896 104.332603,446.133362 
	C113.681084,447.331177 122.994171,448.808441 132.346741,449.970306 
	C141.576050,451.116882 150.846115,451.933411 160.078659,453.056305 
	C170.087173,454.273621 180.078751,455.635925 190.066681,457.014832 
	C196.657776,457.924835 203.212433,459.115479 209.815338,459.917755 
	C214.771194,460.519867 219.777893,460.703735 224.702454,461.069427 
	C224.702454,397.992645 224.702454,335.594910 224.702454,273.000000 
	C149.936722,273.000000 75.468361,273.000000 1.000000,273.000000 
z"/>
<path fill="#000000" opacity="1.000000" stroke="none" 
	d="
M513.000000,240.531342 
	C427.864624,241.000000 342.729218,241.000000 257.296997,241.000000 
	C257.296997,176.736176 257.296997,112.670647 257.296997,48.357677 
	C266.845306,47.248047 276.531433,46.226326 286.187622,44.973789 
	C298.113434,43.426857 310.001343,41.585785 321.930267,40.065163 
	C331.155609,38.889175 340.432159,38.117420 349.661591,36.970123 
	C359.014099,35.807522 368.326752,34.326866 377.675293,33.129082 
	C386.568817,31.989597 395.494751,31.104227 404.390594,29.981670 
	C414.230103,28.740040 424.045898,27.311522 433.883057,26.050392 
	C439.869141,25.282972 445.884460,24.744001 451.871765,23.985312 
	C461.874664,22.717779 471.851288,21.232975 481.865662,20.069258 
	C491.926361,18.900160 502.019623,18.011534 512.549316,17.000000 
	C513.000000,91.354225 513.000000,165.708450 513.000000,240.531342 
z"/>
<path fill="#000000" opacity="1.000000" stroke="none" 
	d="
M513.000000,496.531342 
	C502.005493,495.676666 491.012726,494.338440 480.015747,493.035950 
	C474.022400,492.326050 468.013367,491.743835 462.026520,490.985016 
	C452.024048,489.717194 442.043640,488.272125 432.035339,487.054779 
	C422.803070,485.931854 413.532745,485.119354 404.304169,483.969482 
	C394.953247,482.804352 385.642365,481.320435 376.296478,480.111267 
	C367.568085,478.981995 358.809814,478.085297 350.077362,476.985565 
	C340.074005,475.725800 330.089630,474.315460 320.087250,473.047668 
	C314.100311,472.288818 308.086212,471.743988 302.099243,470.985199 
	C292.096832,469.717621 282.115326,468.282043 272.107056,467.065125 
	C267.244690,466.473938 262.341644,466.217590 257.233887,465.791046 
	C257.233887,401.643219 257.233887,337.571594 257.233887,273.000000 
	C342.216125,273.000000 427.139404,273.000000 512.531372,273.000000 
	C513.000000,347.354218 513.000000,421.708466 513.000000,496.531342 
z"/>
<path fill="#000000" opacity="1.000000" stroke="none" 
	d="
M1.000000,80.468658 
	C11.994144,78.676689 22.986525,77.338493 33.983131,76.035980 
	C39.976265,75.326103 45.985073,74.743881 51.971725,73.985046 
	C61.973835,72.717224 71.953896,71.272224 81.961868,70.054893 
	C91.193802,68.931961 100.463753,68.119034 109.692047,66.969551 
	C119.042824,65.804810 128.351639,64.304771 137.699966,63.118309 
	C146.758865,61.968578 155.852936,61.098167 164.916336,59.981522 
	C174.439392,58.808250 183.940369,57.456558 193.458740,56.243748 
	C199.763855,55.440369 206.079849,54.719517 212.396301,54.008957 
	C216.421005,53.556210 220.455429,53.189861 224.768280,52.756344 
	C224.768280,115.693932 224.768280,178.097443 224.768280,241.000000 
	C150.450027,241.000000 76.193672,241.000000 1.468657,241.000000 
	C1.000000,187.645767 1.000000,134.291550 1.000000,80.468658 
z"/>
<path fill="#000000" opacity="1.000000" stroke="none" 
	d="
M1.000000,273.468658 
	C75.468361,273.000000 149.936722,273.000000 224.702454,273.000000 
	C224.702454,335.594910 224.702454,397.992645 224.702454,461.069427 
	C219.777893,460.703735 214.771194,460.519867 209.815338,459.917755 
	C203.212433,459.115479 196.657776,457.924835 190.066681,457.014832 
	C180.078751,455.635925 170.087173,454.273621 160.078659,453.056305 
	C150.846115,451.933411 141.576050,451.116882 132.346741,449.970306 
	C122.994171,448.808441 113.681084,447.331177 104.332603,446.133362 
	C95.439552,444.993896 86.514526,444.104980 77.619232,442.981812 
	C67.780090,441.739471 57.960941,440.339722 48.128811,439.040863 
	C42.802658,438.337280 37.476192,437.620361 32.134708,437.051941 
	C22.062719,435.980164 11.979759,435.011505 1.450679,434.000000 
	C1.000000,380.645782 1.000000,327.291534 1.000000,273.468658 
z"/>
</svg>